%TF.GenerationSoftware,KiCad,Pcbnew,(6.0.2)*%
%TF.CreationDate,2022-04-15T22:59:47-04:00*%
%TF.ProjectId,Nova,4e6f7661-2e6b-4696-9361-645f70636258,rev?*%
%TF.SameCoordinates,Original*%
%TF.FileFunction,Paste,Bot*%
%TF.FilePolarity,Positive*%
%FSLAX46Y46*%
G04 Gerber Fmt 4.6, Leading zero omitted, Abs format (unit mm)*
G04 Created by KiCad (PCBNEW (6.0.2)) date 2022-04-15 22:59:47*
%MOMM*%
%LPD*%
G01*
G04 APERTURE LIST*
G04 Aperture macros list*
%AMRoundRect*
0 Rectangle with rounded corners*
0 $1 Rounding radius*
0 $2 $3 $4 $5 $6 $7 $8 $9 X,Y pos of 4 corners*
0 Add a 4 corners polygon primitive as box body*
4,1,4,$2,$3,$4,$5,$6,$7,$8,$9,$2,$3,0*
0 Add four circle primitives for the rounded corners*
1,1,$1+$1,$2,$3*
1,1,$1+$1,$4,$5*
1,1,$1+$1,$6,$7*
1,1,$1+$1,$8,$9*
0 Add four rect primitives between the rounded corners*
20,1,$1+$1,$2,$3,$4,$5,0*
20,1,$1+$1,$4,$5,$6,$7,0*
20,1,$1+$1,$6,$7,$8,$9,0*
20,1,$1+$1,$8,$9,$2,$3,0*%
G04 Aperture macros list end*
%ADD10RoundRect,0.147500X-0.172500X0.147500X-0.172500X-0.147500X0.172500X-0.147500X0.172500X0.147500X0*%
%ADD11RoundRect,0.147500X0.172500X-0.147500X0.172500X0.147500X-0.172500X0.147500X-0.172500X-0.147500X0*%
%ADD12RoundRect,0.147500X-0.147500X-0.172500X0.147500X-0.172500X0.147500X0.172500X-0.147500X0.172500X0*%
%ADD13RoundRect,0.147500X0.147500X0.172500X-0.147500X0.172500X-0.147500X-0.172500X0.147500X-0.172500X0*%
%ADD14R,0.650000X1.560000*%
%ADD15RoundRect,0.250000X-0.450000X0.325000X-0.450000X-0.325000X0.450000X-0.325000X0.450000X0.325000X0*%
%ADD16RoundRect,0.250000X0.450000X-0.325000X0.450000X0.325000X-0.450000X0.325000X-0.450000X-0.325000X0*%
%ADD17RoundRect,0.250000X0.325000X0.450000X-0.325000X0.450000X-0.325000X-0.450000X0.325000X-0.450000X0*%
%ADD18RoundRect,0.250000X-0.325000X-0.450000X0.325000X-0.450000X0.325000X0.450000X-0.325000X0.450000X0*%
%ADD19R,1.060000X0.650000*%
G04 APERTURE END LIST*
D10*
%TO.C,C1*%
X157640000Y-104795000D03*
X157640000Y-105765000D03*
%TD*%
D11*
%TO.C,C2*%
X159300000Y-103785000D03*
X159300000Y-102815000D03*
%TD*%
D12*
%TO.C,C4*%
X154465000Y-116200000D03*
X155435000Y-116200000D03*
%TD*%
%TO.C,C25*%
X172795000Y-61535000D03*
X173765000Y-61535000D03*
%TD*%
D13*
%TO.C,C26*%
X171410000Y-74350000D03*
X170440000Y-74350000D03*
%TD*%
D12*
%TO.C,C28*%
X154440000Y-114650000D03*
X155410000Y-114650000D03*
%TD*%
D14*
%TO.C,Q1*%
X143900000Y-66500000D03*
X144850000Y-66500000D03*
X145800000Y-66500000D03*
X145800000Y-69200000D03*
X144850000Y-69200000D03*
X143900000Y-69200000D03*
%TD*%
%TO.C,Q2*%
X143900000Y-74350000D03*
X144850000Y-74350000D03*
X145800000Y-74350000D03*
X145800000Y-77050000D03*
X144850000Y-77050000D03*
X143900000Y-77050000D03*
%TD*%
%TO.C,Q3*%
X150575000Y-66500000D03*
X151525000Y-66500000D03*
X152475000Y-66500000D03*
X152475000Y-69200000D03*
X151525000Y-69200000D03*
X150575000Y-69200000D03*
%TD*%
%TO.C,Q4*%
X150575000Y-74325000D03*
X151525000Y-74325000D03*
X152475000Y-74325000D03*
X152475000Y-77025000D03*
X151525000Y-77025000D03*
X150575000Y-77025000D03*
%TD*%
%TO.C,Q5*%
X175875000Y-120750000D03*
X174925000Y-120750000D03*
X173975000Y-120750000D03*
X173975000Y-118050000D03*
X174925000Y-118050000D03*
X175875000Y-118050000D03*
%TD*%
%TO.C,Q6*%
X175875000Y-112975000D03*
X174925000Y-112975000D03*
X173975000Y-112975000D03*
X173975000Y-110275000D03*
X174925000Y-110275000D03*
X175875000Y-110275000D03*
%TD*%
%TO.C,Q7*%
X169225000Y-120750000D03*
X168275000Y-120750000D03*
X167325000Y-120750000D03*
X167325000Y-118050000D03*
X168275000Y-118050000D03*
X169225000Y-118050000D03*
%TD*%
%TO.C,Q8*%
X169225000Y-112950000D03*
X168275000Y-112950000D03*
X167325000Y-112950000D03*
X167325000Y-110250000D03*
X168275000Y-110250000D03*
X169225000Y-110250000D03*
%TD*%
D12*
%TO.C,R5*%
X160515000Y-130050000D03*
X161485000Y-130050000D03*
%TD*%
D15*
%TO.C,R8*%
X148225000Y-66500000D03*
X148225000Y-68550000D03*
%TD*%
D16*
%TO.C,R9*%
X148200000Y-74350000D03*
X148200000Y-72300000D03*
%TD*%
D17*
%TO.C,R10*%
X145875000Y-71750000D03*
X143825000Y-71750000D03*
%TD*%
D15*
%TO.C,R11*%
X154875000Y-66500000D03*
X154875000Y-68550000D03*
%TD*%
D16*
%TO.C,R12*%
X154875000Y-74325000D03*
X154875000Y-72275000D03*
%TD*%
D17*
%TO.C,R13*%
X152550000Y-71775000D03*
X150500000Y-71775000D03*
%TD*%
D16*
%TO.C,R14*%
X171575000Y-120750000D03*
X171575000Y-118700000D03*
%TD*%
D15*
%TO.C,R15*%
X171575000Y-112975000D03*
X171575000Y-115025000D03*
%TD*%
D18*
%TO.C,R16*%
X173900000Y-115525000D03*
X175950000Y-115525000D03*
%TD*%
D16*
%TO.C,R17*%
X164925000Y-120750000D03*
X164925000Y-118700000D03*
%TD*%
D15*
%TO.C,R18*%
X164925000Y-112950000D03*
X164925000Y-115000000D03*
%TD*%
D10*
%TO.C,R19*%
X167325000Y-99590000D03*
X167325000Y-100560000D03*
%TD*%
D11*
%TO.C,R20*%
X168825000Y-100560000D03*
X168825000Y-99590000D03*
%TD*%
D10*
%TO.C,R21*%
X154300000Y-112115000D03*
X154300000Y-113085000D03*
%TD*%
D13*
%TO.C,R22*%
X148635000Y-116700000D03*
X147665000Y-116700000D03*
%TD*%
D18*
%TO.C,R23*%
X167250000Y-115500000D03*
X169300000Y-115500000D03*
%TD*%
D10*
%TO.C,R37*%
X171796800Y-72069800D03*
X171796800Y-73039800D03*
%TD*%
D19*
%TO.C,U5*%
X167020000Y-104315000D03*
X167020000Y-103365000D03*
X167020000Y-102415000D03*
X169220000Y-102415000D03*
X169220000Y-104315000D03*
%TD*%
M02*
