M48
; DRILL file {KiCad (6.0.2)} date Fri Apr 15 22:59:48 2022
; FORMAT={-:-/ absolute / inch / decimal}
; #@! TF.CreationDate,2022-04-15T22:59:48-04:00
; #@! TF.GenerationSoftware,Kicad,Pcbnew,(6.0.2)
; #@! TF.FileFunction,Plated,1,4,PTH
FMAT,2
INCH
; #@! TA.AperFunction,Plated,PTH,ViaDrill
T1C0.0118
; #@! TA.AperFunction,Plated,PTH,ViaDrill
T2C0.0157
; #@! TA.AperFunction,Plated,PTH,ComponentDrill
T3C0.0157
; #@! TA.AperFunction,Plated,PTH,ComponentDrill
T4C0.0236
; #@! TA.AperFunction,Plated,PTH,ComponentDrill
T5C0.0390
; #@! TA.AperFunction,Plated,PTH,ComponentDrill
T6C0.0394
; #@! TA.AperFunction,Plated,PTH,ComponentDrill
T7C0.0472
; #@! TA.AperFunction,Plated,PTH,ComponentDrill
T8C0.0748
; #@! TA.AperFunction,Plated,PTH,ComponentDrill
T9C0.0935
%
G90
G05
T1
X5.6117Y-3.6725
X5.6393Y-3.1949
X5.6535Y-3.94
X5.6878Y-3.8862
X5.6917Y-4.0145
X5.7087Y-2.7785
X5.7116Y-3.7573
X5.7165Y-3.8504
X5.7343Y-3.6929
X5.7362Y-4.1742
X5.74Y-2.98
X5.75Y-3.9409
X5.7606Y-3.7984
X5.7776Y-4.5945
X5.7783Y-4.0778
X5.7815Y-3.8324
X5.7913Y-4.2077
X5.7992Y-3.0335
X5.8097Y-3.9585
X5.8337Y-4.2352
X5.8356Y-2.7736
X5.8477Y-3.9585
X5.8543Y-3.8268
X5.8583Y-2.5669
X5.8809Y-4.2539
X5.8883Y-3.5591
X5.8996Y-3.7628
X5.9035Y-3.8287
X5.9051Y-3.9768
X5.9283Y-3.2685
X5.9343Y-3.3802
X5.936Y-3.4104
X5.9397Y-3.5365
X5.9413Y-3.9059
X5.9419Y-3.6043
X5.9429Y-4.0482
X5.9488Y-4.1453
X5.9518Y-3.1919
X5.9636Y-3.2933
X5.9715Y-3.4104
X5.9897Y-3.4985
X5.9961Y-3.2362
X6.003Y-2.6703
X6.003Y-3.4075
X6.0057Y-3.1591
X6.0364Y-4.4144
X6.0413Y-4.5138
X6.0413Y-4.5748
X6.0433Y-4.1201
X6.0472Y-4.6358
X6.0482Y-4.5453
X6.063Y-3.0325
X6.0657Y-2.5665
X6.0689Y-3.5797
X6.0917Y-4.0545
X6.0974Y-2.7726
X6.1073Y-3.4783
X6.1152Y-3.6339
X6.124Y-4.378
X6.1363Y-3.0898
X6.1368Y-3.4783
X6.1388Y-4.1201
X6.1555Y-4.4931
X6.1575Y-3.0686
X6.1646Y-3.6339
X6.1792Y-3.0485
X6.1998Y-3.4646
X6.2Y-3.5217
X6.2008Y-4.437
X6.2008Y-4.6181
X6.2244Y-2.7357
X6.2461Y-2.6821
X6.2617Y-1.8049
X6.2701Y-3.5512
X6.2717Y-2.9105
X6.2746Y-4.3406
X6.2766Y-3.4618
X6.2909Y-3.1311
X6.2937Y-2.8285
X6.2969Y-1.9953
X6.2974Y-3.0843
X6.2974Y-3.4827
X6.2982Y-4.3199
X6.3002Y-3.6801
X6.3041Y-4.0484
X6.3051Y-4.6594
X6.3127Y-2.9991
X6.3177Y-2.9105
X6.3219Y-3.0305
X6.3278Y-4.3199
X6.3457Y-3.0485
X6.3533Y-4.4675
X6.3543Y-4.6181
X6.3657Y-4.6929
X6.3657Y-4.7453
X6.374Y-4.4006
X6.3777Y-3.2811
X6.3777Y-3.4025
X6.392Y-3.3376
X6.3986Y-5.1201
X6.41Y-3.31
X6.4213Y-4.4222
X6.4213Y-4.627
X6.4291Y-3.2825
X6.4373Y-1.9323
X6.4707Y-2.8705
X6.4826Y-1.9323
X6.4872Y-3.3327
X6.4931Y-2.9331
X6.4931Y-4.5974
X6.5118Y-3.2667
X6.5138Y-3.6634
X6.5335Y-4.0699
X6.5344Y-4.3406
X6.5394Y-2.8541
X6.562Y-2.7766
X6.5689Y-2.9843
X6.5699Y-3.5394
X6.5876Y-4.3929
X6.6079Y-2.7374
X6.6407Y-3.189
X6.6575Y-3.0679
X6.661Y-3.8602
X6.6624Y-4.0699
X6.6713Y-2.877
X6.6772Y-2.9272
X6.6772Y-2.9911
X6.6772Y-3.5935
X6.6831Y-3.9213
X6.6835Y-2.7701
X6.6906Y-3.8626
X6.7201Y-3.8605
X6.749Y-3.0138
X6.7508Y-3.8592
X6.7549Y-4.5984
X6.764Y-2.4226
X6.7657Y-4.3925
X6.7933Y-4.3415
X6.8618Y-2.5071
X6.8657Y-2.9912
X6.8671Y-3.3061
X6.869Y-2.8275
X6.8857Y-2.4205
X6.9037Y-2.5525
X6.9331Y-2.9587
T2
X5.6118Y-3.9303
X6.2417Y-4.1764
X6.3421Y-2.5484
T3
X5.9291Y-4.4272
X5.9291Y-4.4606
X5.9291Y-4.4941
X5.9291Y-4.5276
X5.9291Y-4.561
X5.9291Y-4.5945
X5.9291Y-4.628
X5.9291Y-4.6614
X5.9823Y-4.4272
X5.9823Y-4.4606
X5.9823Y-4.4941
X5.9823Y-4.5276
X5.9823Y-4.561
X5.9823Y-4.5945
X5.9823Y-4.628
X5.9823Y-4.6614
T5
X6.2577Y-2.0699
X6.2977Y-1.8699
X6.3377Y-2.0699
T6
X5.7024Y-3.126
X5.7024Y-3.226
X5.7024Y-3.326
X5.8024Y-3.126
X5.8024Y-3.226
X5.8024Y-3.326
X6.1949Y-4.9232
X6.1949Y-5.1201
X6.8228Y-3.8022
X6.8228Y-4.2352
T7
X5.6937Y-2.25
X5.6937Y-2.4469
X5.7362Y-4.9232
X5.7362Y-5.1201
X5.7921Y-2.25
X5.7921Y-2.4469
X5.8346Y-4.9232
X5.8346Y-5.1201
X5.8905Y-2.25
X5.8905Y-2.4469
X5.9889Y-2.25
X5.9889Y-2.4469
X6.5581Y-4.9262
X6.5581Y-5.123
X6.6565Y-4.9262
X6.6565Y-5.123
X6.7549Y-4.9262
X6.7549Y-5.123
X6.8533Y-4.9262
X6.8533Y-5.123
T8
X6.4291Y-3.9203
X6.4291Y-4.1171
T9
X6.1977Y-1.8699
X6.1977Y-1.9949
X6.3977Y-1.8699
X6.3977Y-1.9949
T4
G00X5.8264Y-4.374
M15
G01X5.7949Y-4.374
M16
G05
G00X5.8264Y-4.7146
M15
G01X5.7949Y-4.7146
M16
G05
G00X5.9732Y-4.374
M15
G01X5.9142Y-4.374
M16
G05
G00X5.9732Y-4.7146
M15
G01X5.9142Y-4.7146
M16
G05
T0
M30
