%TF.GenerationSoftware,KiCad,Pcbnew,(6.0.2)*%
%TF.CreationDate,2022-04-15T22:59:47-04:00*%
%TF.ProjectId,Nova,4e6f7661-2e6b-4696-9361-645f70636258,rev?*%
%TF.SameCoordinates,Original*%
%TF.FileFunction,Soldermask,Top*%
%TF.FilePolarity,Negative*%
%FSLAX46Y46*%
G04 Gerber Fmt 4.6, Leading zero omitted, Abs format (unit mm)*
G04 Created by KiCad (PCBNEW (6.0.2)) date 2022-04-15 22:59:47*
%MOMM*%
%LPD*%
G01*
G04 APERTURE LIST*
G04 Aperture macros list*
%AMRoundRect*
0 Rectangle with rounded corners*
0 $1 Rounding radius*
0 $2 $3 $4 $5 $6 $7 $8 $9 X,Y pos of 4 corners*
0 Add a 4 corners polygon primitive as box body*
4,1,4,$2,$3,$4,$5,$6,$7,$8,$9,$2,$3,0*
0 Add four circle primitives for the rounded corners*
1,1,$1+$1,$2,$3*
1,1,$1+$1,$4,$5*
1,1,$1+$1,$6,$7*
1,1,$1+$1,$8,$9*
0 Add four rect primitives between the rounded corners*
20,1,$1+$1,$2,$3,$4,$5,0*
20,1,$1+$1,$4,$5,$6,$7,0*
20,1,$1+$1,$6,$7,$8,$9,0*
20,1,$1+$1,$8,$9,$2,$3,0*%
G04 Aperture macros list end*
%ADD10C,0.152400*%
%ADD11RoundRect,0.050000X0.900000X0.900000X-0.900000X0.900000X-0.900000X-0.900000X0.900000X-0.900000X0*%
%ADD12RoundRect,0.197500X0.147500X0.172500X-0.147500X0.172500X-0.147500X-0.172500X0.147500X-0.172500X0*%
%ADD13RoundRect,0.197500X0.172500X-0.147500X0.172500X0.147500X-0.172500X0.147500X-0.172500X-0.147500X0*%
%ADD14RoundRect,0.197500X-0.226274X-0.017678X-0.017678X-0.226274X0.226274X0.017678X0.017678X0.226274X0*%
%ADD15RoundRect,0.197500X0.017678X-0.226274X0.226274X-0.017678X-0.017678X0.226274X-0.226274X0.017678X0*%
%ADD16RoundRect,0.197500X0.226274X0.017678X0.017678X0.226274X-0.226274X-0.017678X-0.017678X-0.226274X0*%
%ADD17RoundRect,0.197500X-0.147500X-0.172500X0.147500X-0.172500X0.147500X0.172500X-0.147500X0.172500X0*%
%ADD18RoundRect,0.197500X-0.172500X0.147500X-0.172500X-0.147500X0.172500X-0.147500X0.172500X0.147500X0*%
%ADD19RoundRect,0.050000X1.000000X-1.000000X1.000000X1.000000X-1.000000X1.000000X-1.000000X-1.000000X0*%
%ADD20C,2.100000*%
%ADD21RoundRect,0.050000X0.750000X0.550000X-0.750000X0.550000X-0.750000X-0.550000X0.750000X-0.550000X0*%
%ADD22RoundRect,0.300000X-0.450000X0.325000X-0.450000X-0.325000X0.450000X-0.325000X0.450000X0.325000X0*%
%ADD23RoundRect,0.300000X-0.325000X-0.450000X0.325000X-0.450000X0.325000X0.450000X-0.325000X0.450000X0*%
%ADD24RoundRect,0.300000X0.325000X0.450000X-0.325000X0.450000X-0.325000X-0.450000X0.325000X-0.450000X0*%
%ADD25RoundRect,0.300001X0.462499X0.624999X-0.462499X0.624999X-0.462499X-0.624999X0.462499X-0.624999X0*%
%ADD26C,3.100000*%
%ADD27RoundRect,0.050000X0.900000X1.500000X-0.900000X1.500000X-0.900000X-1.500000X0.900000X-1.500000X0*%
%ADD28O,1.900000X3.100000*%
%ADD29RoundRect,0.050000X-0.900000X-1.500000X0.900000X-1.500000X0.900000X1.500000X-0.900000X1.500000X0*%
%ADD30C,0.800000*%
%ADD31O,1.800000X1.000000*%
%ADD32O,2.500000X1.000000*%
%ADD33RoundRect,0.050000X-0.550000X0.425000X-0.550000X-0.425000X0.550000X-0.425000X0.550000X0.425000X0*%
%ADD34RoundRect,0.050000X-0.550000X0.375000X-0.550000X-0.375000X0.550000X-0.375000X0.550000X0.375000X0*%
%ADD35RoundRect,0.050000X-0.500000X0.600000X-0.500000X-0.600000X0.500000X-0.600000X0.500000X0.600000X0*%
%ADD36RoundRect,0.050000X-0.675000X0.950000X-0.675000X-0.950000X0.675000X-0.950000X0.675000X0.950000X0*%
%ADD37RoundRect,0.050000X-0.675000X0.775000X-0.675000X-0.775000X0.675000X-0.775000X0.675000X0.775000X0*%
%ADD38RoundRect,0.050000X-0.900000X0.585000X-0.900000X-0.585000X0.900000X-0.585000X0.900000X0.585000X0*%
%ADD39RoundRect,0.268750X-0.218750X-0.256250X0.218750X-0.256250X0.218750X0.256250X-0.218750X0.256250X0*%
%ADD40RoundRect,0.268750X0.256250X-0.218750X0.256250X0.218750X-0.256250X0.218750X-0.256250X-0.218750X0*%
%ADD41RoundRect,0.050000X0.500000X0.700000X-0.500000X0.700000X-0.500000X-0.700000X0.500000X-0.700000X0*%
%ADD42RoundRect,0.050000X-0.500000X-0.700000X0.500000X-0.700000X0.500000X0.700000X-0.500000X0.700000X0*%
%ADD43RoundRect,0.112500X0.220971X0.309359X-0.309359X-0.220971X-0.220971X-0.309359X0.309359X0.220971X0*%
%ADD44RoundRect,0.112500X-0.220971X0.309359X-0.309359X0.220971X0.220971X-0.309359X0.309359X-0.220971X0*%
%ADD45RoundRect,0.050000X0.000000X3.959798X-3.959798X0.000000X0.000000X-3.959798X3.959798X0.000000X0*%
%ADD46RoundRect,0.050000X0.275000X0.175000X-0.275000X0.175000X-0.275000X-0.175000X0.275000X-0.175000X0*%
%ADD47RoundRect,0.050000X0.175000X0.275000X-0.175000X0.275000X-0.175000X-0.275000X0.175000X-0.275000X0*%
%ADD48RoundRect,0.050000X0.470000X0.220000X-0.470000X0.220000X-0.470000X-0.220000X0.470000X-0.220000X0*%
%ADD49RoundRect,0.050000X1.700000X2.150000X-1.700000X2.150000X-1.700000X-2.150000X1.700000X-2.150000X0*%
%ADD50RoundRect,0.125000X-0.075000X0.350000X-0.075000X-0.350000X0.075000X-0.350000X0.075000X0.350000X0*%
%ADD51RoundRect,0.125000X-0.350000X0.075000X-0.350000X-0.075000X0.350000X-0.075000X0.350000X0.075000X0*%
%ADD52RoundRect,0.050000X-1.050000X1.050000X-1.050000X-1.050000X1.050000X-1.050000X1.050000X1.050000X0*%
%ADD53RoundRect,0.050000X0.546100X0.304800X-0.546100X0.304800X-0.546100X-0.304800X0.546100X-0.304800X0*%
%ADD54RoundRect,0.100000X0.225000X0.050000X-0.225000X0.050000X-0.225000X-0.050000X0.225000X-0.050000X0*%
%ADD55RoundRect,0.100000X-0.050000X0.225000X-0.050000X-0.225000X0.050000X-0.225000X0.050000X0.225000X0*%
%ADD56C,1.500000*%
%ADD57RoundRect,0.050000X-1.750000X1.750000X-1.750000X-1.750000X1.750000X-1.750000X1.750000X1.750000X0*%
%ADD58C,3.600000*%
%ADD59RoundRect,0.050000X0.760140X0.017678X0.017678X0.760140X-0.760140X-0.017678X-0.017678X-0.760140X0*%
%ADD60RoundRect,0.050000X-0.106066X-1.166726X1.166726X0.106066X0.106066X1.166726X-1.166726X-0.106066X0*%
%ADD61RoundRect,0.050000X-0.780000X-0.325000X0.780000X-0.325000X0.780000X0.325000X-0.780000X0.325000X0*%
%ADD62RoundRect,0.050000X0.850000X0.850000X-0.850000X0.850000X-0.850000X-0.850000X0.850000X-0.850000X0*%
%ADD63O,1.800000X1.800000*%
%ADD64RoundRect,0.165200X-0.364800X-0.834800X0.364800X-0.834800X0.364800X0.834800X-0.364800X0.834800X0*%
%ADD65RoundRect,2.865000X0.000000X-0.605000X0.000000X-0.605000X0.000000X0.605000X0.000000X0.605000X0*%
%ADD66C,1.091000*%
%ADD67C,2.475000*%
%ADD68C,0.887000*%
G04 APERTURE END LIST*
D10*
%TO.C,U6*%
X151456000Y-95931100D02*
X150363800Y-95931100D01*
X150363800Y-92181100D02*
X150363800Y-92790700D01*
X149256000Y-95290700D02*
X149256000Y-94681100D01*
X149256000Y-96540700D02*
X149256000Y-95931100D01*
X151456000Y-92181100D02*
X150363800Y-92181100D01*
X149256000Y-95931100D02*
X148163800Y-95931100D01*
X150363800Y-96540700D02*
X151456000Y-96540700D01*
X148163800Y-96540700D02*
X149256000Y-96540700D01*
X150363800Y-92790700D02*
X151456000Y-92790700D01*
X151456000Y-92790700D02*
X151456000Y-92181100D01*
X148163800Y-95290700D02*
X149256000Y-95290700D01*
X148163800Y-94040700D02*
X149256000Y-94040700D01*
X148163800Y-94681100D02*
X148163800Y-95290700D01*
X149256000Y-94040700D02*
X149256000Y-93431100D01*
X148163800Y-92181100D02*
X148163800Y-92790700D01*
X149256000Y-92790700D02*
X149256000Y-92181100D01*
X151456000Y-95290700D02*
X151456000Y-94681100D01*
X150363800Y-93431100D02*
X150363800Y-94040700D01*
X150363800Y-95931100D02*
X150363800Y-96540700D01*
X148163800Y-92790700D02*
X149256000Y-92790700D01*
X150363800Y-94040700D02*
X151456000Y-94040700D01*
X148163800Y-93431100D02*
X148163800Y-94040700D01*
X151456000Y-93431100D02*
X150363800Y-93431100D01*
X148163800Y-95931100D02*
X148163800Y-96540700D01*
X150363800Y-94681100D02*
X150363800Y-95290700D01*
X151456000Y-94681100D02*
X150363800Y-94681100D01*
X149256000Y-94681100D02*
X148163800Y-94681100D01*
X151456000Y-96540700D02*
X151456000Y-95931100D01*
X149256000Y-92181100D02*
X148163800Y-92181100D01*
X149256000Y-93431100D02*
X148163800Y-93431100D01*
X151456000Y-94040700D02*
X151456000Y-93431100D01*
X150363800Y-95290700D02*
X151456000Y-95290700D01*
%TD*%
D11*
%TO.C,BZ1*%
X169600000Y-92750000D03*
X169600000Y-86600000D03*
X175750000Y-86600000D03*
X175750000Y-92750000D03*
%TD*%
D12*
%TO.C,C3*%
X150910000Y-98350000D03*
X149940000Y-98350000D03*
%TD*%
D13*
%TO.C,C5*%
X153650000Y-70745000D03*
X153650000Y-69775000D03*
%TD*%
D14*
%TO.C,C6*%
X163357053Y-81982053D03*
X164042947Y-82667947D03*
%TD*%
D15*
%TO.C,C7*%
X164982053Y-75892947D03*
X165667947Y-75207053D03*
%TD*%
%TO.C,C8*%
X163607053Y-74567947D03*
X164292947Y-73882053D03*
%TD*%
%TO.C,C9*%
X167282053Y-82392947D03*
X167967947Y-81707053D03*
%TD*%
D16*
%TO.C,C10*%
X152400000Y-81225000D03*
X151714106Y-80539106D03*
%TD*%
D14*
%TO.C,C11*%
X167757053Y-76582053D03*
X168442947Y-77267947D03*
%TD*%
D16*
%TO.C,C12*%
X151317947Y-82267947D03*
X150632053Y-81582053D03*
%TD*%
D14*
%TO.C,C13*%
X163407053Y-84657053D03*
X164092947Y-85342947D03*
%TD*%
D15*
%TO.C,C14*%
X160382053Y-79042947D03*
X161067947Y-78357053D03*
%TD*%
D17*
%TO.C,C15*%
X149990000Y-101975000D03*
X150960000Y-101975000D03*
%TD*%
D18*
%TO.C,C16*%
X145700000Y-104190000D03*
X145700000Y-105160000D03*
%TD*%
D12*
%TO.C,C17*%
X148560000Y-101975000D03*
X147590000Y-101975000D03*
%TD*%
D14*
%TO.C,C18*%
X155982053Y-89232053D03*
X156667947Y-89917947D03*
%TD*%
D18*
%TO.C,C22*%
X146100000Y-101040000D03*
X146100000Y-102010000D03*
%TD*%
D13*
%TO.C,C23*%
X143550000Y-102010000D03*
X143550000Y-101040000D03*
%TD*%
D19*
%TO.C,C24*%
X157350000Y-130050000D03*
D20*
X157350000Y-125050000D03*
%TD*%
D12*
%TO.C,C29*%
X160685000Y-120525000D03*
X159715000Y-120525000D03*
%TD*%
%TO.C,C30*%
X160685000Y-119200000D03*
X159715000Y-119200000D03*
%TD*%
D17*
%TO.C,C31*%
X154465000Y-117750000D03*
X155435000Y-117750000D03*
%TD*%
D21*
%TO.C,D1*%
X175904956Y-83965000D03*
X172904956Y-83965000D03*
X172904956Y-82465000D03*
X175904956Y-82465000D03*
%TD*%
D22*
%TO.C,D2*%
X166875000Y-86600000D03*
X166875000Y-88650000D03*
%TD*%
D23*
%TO.C,D3*%
X153325000Y-107550000D03*
X155375000Y-107550000D03*
%TD*%
D24*
%TO.C,D4*%
X159625000Y-107550000D03*
X157575000Y-107550000D03*
%TD*%
D13*
%TO.C,D5*%
X155800000Y-113085000D03*
X155800000Y-112115000D03*
%TD*%
%TO.C,D6*%
X154300000Y-113085000D03*
X154300000Y-112115000D03*
%TD*%
D12*
%TO.C,D7*%
X159060000Y-93475000D03*
X158090000Y-93475000D03*
%TD*%
D25*
%TO.C,F1*%
X157762500Y-119850000D03*
X154787500Y-119850000D03*
%TD*%
D26*
%TO.C,H1*%
X173500000Y-49000000D03*
%TD*%
%TO.C,H2*%
X146000000Y-49000000D03*
%TD*%
%TO.C,H3*%
X173500000Y-138500000D03*
%TD*%
%TO.C,H4*%
X157000000Y-138500000D03*
%TD*%
D27*
%TO.C,J4*%
X148200000Y-130050000D03*
X148200000Y-125050000D03*
D28*
X145700000Y-125050000D03*
X145700000Y-130050000D03*
%TD*%
D29*
%TO.C,J5*%
X144618800Y-62150000D03*
X144618800Y-57150000D03*
D28*
X147118800Y-57150000D03*
X147118800Y-62150000D03*
X149618800Y-57150000D03*
X149618800Y-62150000D03*
X152118800Y-62150000D03*
X152118800Y-57150000D03*
%TD*%
D27*
%TO.C,J6*%
X174075000Y-130125000D03*
X174075000Y-125125000D03*
D28*
X171575000Y-125125000D03*
X171575000Y-130125000D03*
X169075000Y-125125000D03*
X169075000Y-130125000D03*
X166575000Y-125125000D03*
X166575000Y-130125000D03*
%TD*%
D30*
%TO.C,J7*%
X151950000Y-112450000D03*
X151950000Y-113300000D03*
X151950000Y-114150000D03*
X151950000Y-115000000D03*
X151950000Y-115850000D03*
X151950000Y-116700000D03*
X151950000Y-117550000D03*
X151950000Y-118400000D03*
X150600000Y-118400000D03*
X150600000Y-117550000D03*
X150600000Y-116700000D03*
X150600000Y-115850000D03*
X150600000Y-115000000D03*
X150600000Y-114150000D03*
X150600000Y-113300000D03*
X150600000Y-112450000D03*
D31*
X147590000Y-111100000D03*
X147590000Y-119750000D03*
D32*
X150970000Y-119750000D03*
X150970000Y-111100000D03*
%TD*%
D33*
%TO.C,Micro_SD1*%
X176535600Y-58225000D03*
X176535600Y-59325000D03*
X176535600Y-60425000D03*
X176535600Y-61525000D03*
X176535600Y-62625000D03*
X176535600Y-63725000D03*
X176535600Y-64825000D03*
D34*
X176535600Y-65875000D03*
D35*
X170385600Y-55590000D03*
X166685600Y-55590000D03*
D36*
X165710600Y-65060000D03*
X165710600Y-59090000D03*
D37*
X176410600Y-55765000D03*
D38*
X176185600Y-67085000D03*
%TD*%
D39*
%TO.C,R1*%
X172537500Y-80275000D03*
X174112500Y-80275000D03*
%TD*%
D40*
%TO.C,R2*%
X176150000Y-80350000D03*
X176150000Y-78775000D03*
%TD*%
%TO.C,R3*%
X170625000Y-83962500D03*
X170625000Y-82387500D03*
%TD*%
D39*
%TO.C,R4*%
X158087500Y-91725000D03*
X159662500Y-91725000D03*
%TD*%
D18*
%TO.C,R6*%
X153650000Y-67365000D03*
X153650000Y-68335000D03*
%TD*%
D17*
%TO.C,R7*%
X153625000Y-73975000D03*
X154595000Y-73975000D03*
%TD*%
%TO.C,R27*%
X163515000Y-89000000D03*
X164485000Y-89000000D03*
%TD*%
%TO.C,R28*%
X157490000Y-110250000D03*
X158460000Y-110250000D03*
%TD*%
D12*
%TO.C,R29*%
X155560000Y-110250000D03*
X154590000Y-110250000D03*
%TD*%
%TO.C,R30*%
X155435000Y-116200000D03*
X154465000Y-116200000D03*
%TD*%
D17*
%TO.C,R31*%
X154440000Y-114650000D03*
X155410000Y-114650000D03*
%TD*%
D13*
%TO.C,R32*%
X163100000Y-116635000D03*
X163100000Y-115665000D03*
%TD*%
D12*
%TO.C,R33*%
X160935000Y-111775000D03*
X159965000Y-111775000D03*
%TD*%
D18*
%TO.C,R34*%
X163100000Y-113265000D03*
X163100000Y-114235000D03*
%TD*%
D17*
%TO.C,R35*%
X157515000Y-111775000D03*
X158485000Y-111775000D03*
%TD*%
D41*
%TO.C,BOOT1*%
X152000000Y-73975000D03*
X145000000Y-73975000D03*
%TD*%
D42*
%TO.C,NRST1*%
X145000000Y-69075000D03*
X152000000Y-69075000D03*
%TD*%
D43*
%TO.C,U1*%
X161800223Y-82863864D03*
X161446670Y-82510311D03*
X161093116Y-82156757D03*
X160739563Y-81803204D03*
X160386010Y-81449651D03*
X160032456Y-81096097D03*
X159678903Y-80742544D03*
X159325349Y-80388990D03*
X158971796Y-80035437D03*
X158618243Y-79681884D03*
X158264689Y-79328330D03*
X157911136Y-78974777D03*
D44*
X156938864Y-78974777D03*
X156585311Y-79328330D03*
X156231757Y-79681884D03*
X155878204Y-80035437D03*
X155524651Y-80388990D03*
X155171097Y-80742544D03*
X154817544Y-81096097D03*
X154463990Y-81449651D03*
X154110437Y-81803204D03*
X153756884Y-82156757D03*
X153403330Y-82510311D03*
X153049777Y-82863864D03*
D43*
X153049777Y-83836136D03*
X153403330Y-84189689D03*
X153756884Y-84543243D03*
X154110437Y-84896796D03*
X154463990Y-85250349D03*
X154817544Y-85603903D03*
X155171097Y-85957456D03*
X155524651Y-86311010D03*
X155878204Y-86664563D03*
X156231757Y-87018116D03*
X156585311Y-87371670D03*
X156938864Y-87725223D03*
D44*
X157911136Y-87725223D03*
X158264689Y-87371670D03*
X158618243Y-87018116D03*
X158971796Y-86664563D03*
X159325349Y-86311010D03*
X159678903Y-85957456D03*
X160032456Y-85603903D03*
X160386010Y-85250349D03*
X160739563Y-84896796D03*
X161093116Y-84543243D03*
X161446670Y-84189689D03*
X161800223Y-83836136D03*
D45*
X157425000Y-83350000D03*
%TD*%
D46*
%TO.C,U2*%
X146050000Y-99295000D03*
X146050000Y-98795000D03*
X146050000Y-98295000D03*
X146050000Y-97795000D03*
X146050000Y-97295000D03*
D47*
X145325000Y-97070000D03*
X144825000Y-97070000D03*
X144325000Y-97070000D03*
D46*
X143600000Y-97295000D03*
X143600000Y-97795000D03*
X143600000Y-98295000D03*
X143600000Y-98795000D03*
X143600000Y-99295000D03*
D47*
X144325000Y-99520000D03*
X144825000Y-99520000D03*
X145325000Y-99520000D03*
%TD*%
D48*
%TO.C,U3*%
X176095000Y-74355000D03*
X176095000Y-73085000D03*
X176095000Y-71815000D03*
X176095000Y-70545000D03*
X168305000Y-70545000D03*
X168305000Y-71815000D03*
X168305000Y-73085000D03*
X168305000Y-74355000D03*
D49*
X172200000Y-72450000D03*
%TD*%
D50*
%TO.C,U4*%
X160425000Y-113475000D03*
X159775000Y-113475000D03*
X159125000Y-113475000D03*
X158475000Y-113475000D03*
D51*
X157500000Y-114450000D03*
X157500000Y-115100000D03*
X157500000Y-115750000D03*
X157500000Y-116400000D03*
D50*
X158475000Y-117375000D03*
X159125000Y-117375000D03*
X159775000Y-117375000D03*
X160425000Y-117375000D03*
D51*
X161400000Y-116400000D03*
X161400000Y-115750000D03*
X161400000Y-115100000D03*
X161400000Y-114450000D03*
D52*
X159450000Y-115425000D03*
%TD*%
D53*
%TO.C,U6*%
X150909900Y-96235900D03*
X150909900Y-94985900D03*
X150909900Y-93735900D03*
X150909900Y-92485900D03*
X148709900Y-92485900D03*
X148709900Y-93735900D03*
X148709900Y-94985900D03*
X148709900Y-96235900D03*
%TD*%
D54*
%TO.C,U7*%
X150275000Y-106195000D03*
X150275000Y-105795000D03*
X150275000Y-105395000D03*
X150275000Y-104995000D03*
X150275000Y-104595000D03*
X150275000Y-104195000D03*
D55*
X149775000Y-103695000D03*
X149375000Y-103695000D03*
X148975000Y-103695000D03*
X148575000Y-103695000D03*
X148175000Y-103695000D03*
X147775000Y-103695000D03*
D54*
X147275000Y-104195000D03*
X147275000Y-104595000D03*
X147275000Y-104995000D03*
X147275000Y-105395000D03*
X147275000Y-105795000D03*
X147275000Y-106195000D03*
D55*
X147775000Y-106695000D03*
X148175000Y-106695000D03*
X148575000Y-106695000D03*
X148975000Y-106695000D03*
X149375000Y-106695000D03*
X149775000Y-106695000D03*
%TD*%
D56*
%TO.C,xt1*%
X173300000Y-107575000D03*
X173300000Y-96575000D03*
D57*
X163300000Y-104575000D03*
D58*
X163300000Y-99575000D03*
%TD*%
D59*
%TO.C,Y1*%
X163579074Y-77254074D03*
X162270926Y-75945926D03*
%TD*%
D60*
%TO.C,Y2*%
X165798223Y-80928858D03*
X167353858Y-79373223D03*
X166151777Y-78171142D03*
X164596142Y-79726777D03*
%TD*%
D61*
%TO.C,Q9*%
X164100000Y-91150000D03*
X164100000Y-92100000D03*
X164100000Y-93050000D03*
X166800000Y-93050000D03*
X166800000Y-92100000D03*
X166800000Y-91150000D03*
%TD*%
D62*
%TO.C,J2*%
X144840000Y-84480000D03*
D63*
X147380000Y-84480000D03*
X144840000Y-81940000D03*
X147380000Y-81940000D03*
X144840000Y-79400000D03*
X147380000Y-79400000D03*
%TD*%
D64*
%TO.C,U8*%
X154710000Y-104470000D03*
D65*
X156990000Y-97760000D03*
D64*
X159270000Y-104470000D03*
%TD*%
D66*
%TO.C,J1*%
X158944400Y-52575600D03*
X160976400Y-52575600D03*
X159960400Y-47495600D03*
D67*
X157420400Y-50670600D03*
X162500400Y-47495600D03*
X157420400Y-47495600D03*
X162500400Y-50670600D03*
D68*
X159325400Y-48765600D03*
X160595400Y-48765600D03*
X159325400Y-50035600D03*
X160595400Y-50035600D03*
X159325400Y-51305600D03*
X160595400Y-51305600D03*
%TD*%
M02*
